<?xml version="1.0" encoding="UTF-8"?>
<svg width="268px" height="237px" viewBox="0 0 268 237" version="1.1" xmlns="http://www.w3.org/2000/svg" xmlns:xlink="http://www.w3.org/1999/xlink">
    <!-- Generator: Sketch 44.1 (41455) - http://www.bohemiancoding.com/sketch -->
    <title>Mask</title>
    <desc>Created with Sketch.</desc>
    <defs>
        <path d="M124.989981,35.1842999 L108.433753,18.6280717 C83.6207343,-6.18494683 43.4096888,-6.17943638 18.6048709,18.6253815 C-6.20540093,43.4356533 -6.19874261,83.6479598 18.607561,108.454263 L124.929751,214.776453 L125.010019,214.696185 L125.070249,214.756415 L231.392439,108.434225 C256.198743,83.6279218 256.205401,43.4156154 231.395129,18.6053436 C206.590311,-6.19947432 166.379266,-6.20498476 141.566247,18.6080337 L124.989981,35.1842999 Z" id="path-1"></path>
    </defs>
    <g id="Welcome" stroke="none" stroke-width="1" fill="none" fill-rule="evenodd">
        <g id="Desktop-HD" transform="translate(-1063.000000, -1115.000000)">
            <g id="Our-Story" transform="translate(0.000000, 1024.000000)">
                <g id="Proposed" transform="translate(1072.000000, 100.000000)">
                    <g id="ParsonGardens3">
                        <mask id="mask-2" fill="white">
                            <use xlink:href="#path-1"></use>
                        </mask>
                        <path stroke="#9B9B9B" stroke-width="9" d="M124.989981,28.8203389 L138.384267,15.4260532 C164.952356,-11.1420364 208.012644,-11.1411025 234.57711,15.4233631 C261.14296,41.989213 261.139864,85.0507616 234.574419,111.616206 L125.070249,221.120376 L125.010019,221.060146 L124.929751,221.140414 L15.4255805,111.636244 C-11.1398639,85.0707995 -11.1429596,42.0092509 15.4228904,15.443401 C41.9873559,-11.1210645 85.0476437,-11.1219984 111.615733,15.4460912 L124.989981,28.8203389 Z"></path>
                    </g>
                </g>
            </g>
        </g>
    </g>
</svg>