<?xml version="1.0" encoding="UTF-8"?>
<svg width="18px" height="15px" viewBox="0 0 18 15" version="1.1" xmlns="http://www.w3.org/2000/svg" xmlns:xlink="http://www.w3.org/1999/xlink">
    <!-- Generator: Sketch 44.1 (41455) - http://www.bohemiancoding.com/sketch -->
    <title>Icons/Menu hamburger</title>
    <desc>Created with Sketch.</desc>
    <defs></defs>
    <g id="Page-3" stroke="none" stroke-width="1" fill="none" fill-rule="evenodd">
        <g id="ICON-LIBRARY" transform="translate(-5.000000, -87.000000)" fill="#BBBDBF">
            <g id="@Icons/Menu-hamburger" transform="translate(5.850000, 87.150602)">
                <path d="M17.1000204,12.1245672 L17.1000204,13.5509888 C17.1000204,13.941026 16.7771684,14.2641997 16.3875195,14.2641997 L0.712500849,14.2641997 C0.322851947,14.2641997 0,13.941026 0,13.5509888 L0,12.1245672 C0,11.73453 0.322851947,11.4113563 0.712500849,11.4113563 L16.3875195,11.4113563 C16.7771684,11.4113563 17.1000204,11.73453 17.1000204,12.1245672 Z M17.1000204,6.41888049 L17.1000204,7.84530216 C17.1000204,8.23533933 16.7771684,8.55851299 16.3875195,8.55851299 L0.712500849,8.55851299 C0.322851947,8.55851299 0,8.23533933 0,7.84530216 L0,6.41888049 C0,6.02884332 0.322851947,5.70566966 0.712500849,5.70566966 L16.3875195,5.70566966 C16.7771684,5.70566966 17.1000204,6.02884332 17.1000204,6.41888049 Z M17.1000204,0.713193829 L17.1000204,2.13961549 C17.1000204,2.52965267 16.7771684,2.85282633 16.3875195,2.85282633 L0.712500849,2.85282633 C0.322851947,2.85282633 0,2.52965267 0,2.13961549 L0,0.713193829 C0,0.323156654 0.322851947,-1.70042511e-05 0.712500849,-1.70042511e-05 L16.3875195,-1.70042511e-05 C16.7771684,-1.70042511e-05 17.1000204,0.323156654 17.1000204,0.713193829 Z" id="Icons/Menu-hamburger"></path>
            </g>
        </g>
    </g>
</svg>