<svg xmlns="http://www.w3.org/2000/svg" width="540.078" height="535.96" viewBox="0 0 540.078 535.96"><g fill-rule="evenodd" clip-rule="evenodd"><path d="M101.493 354.149c-10.362 6.999-18.362 20.252-23.468 31.604-6.236 13.861-2.106 28.528-1.001 42.974.974 12.729 3.024 25.593 5.203 38.175 1.523 8.793 7.68 30.572.02 37.979-5.122 4.952-21.477 7.663-23.51-1.626-2.513-11.479-1.07-23.954-2.262-35.582-2.944-28.7.976-58.435-4.497-87.023-6.413 4.049-12.931 8.213-20.35 10.16-6.076 1.596-14.219 1.813-18.838 6.574-2.231 2.303-6.148 8.399-9.272 8.767-7.906.931-2.25-8.601-.089-11.25 8.228-10.089 25.857-9.318 36.594-17.019 4.123-2.957 10.21-10.688 15.682-10.598 8.351.139 16.769.969 17.765 10.136 10.207-13.335 17.041-33.728 37.699-31.515 20.614 2.208 24.196 31.712 26.023 47.216 2.275 19.32 1.49 39.284 2.443 58.743.938 19.138-3.351 39.59.114 58.521 13.873-18.133 13.269-46.783 14.499-68.381.827-14.525 3.299-28.623 1.971-43.193-.845-9.27-7.651-28.168 5.474-29.98 13.54-1.871 17.171 7.664 18.318 18.855 1.413 13.787 3.32 27.471 4.872 41.223 2.636 23.372 7.248 46.994 11.458 70.153 8.62-8.605 9.671-32.381 11.06-43.569 2.142-17.257 3.77-34.421 6.116-51.723 2.172-16.018 6.541-34.22 20.278-44.611 5.989-4.53 13.413-5.565 20.558-3.915 4.914 1.136 19.935 4.716 20.619 11.231.244 2.319 1.692 3.338-2.491 4.264-6.508 1.441-3.889-1.628-7.434-4.771-6.404-5.676-9.887 2.115-13.469 6.836-10.148 13.365-16.867 31.27-16.913 48-.049 17.455 3.44 36.058 8.74 52.705 2.199 6.905 14.803 49.318 28.464 35.945 4.229-4.145 9.317-6.239 12.863-11.457 5.862-8.631 10.079-17.549 13.827-27.239 6.269-16.205 12.148-38.47 12.403-55.876.127-8.833 2.431-16.311 1.641-25.482-.808-9.381-2.631-18.549-3.007-27.982-.328-8.215-.769-16.367-1.045-24.576-.337-10.042 2.304-21.041.756-30.955-3.514-22.486 25.752-83.274 48.594-45.084 17.648 29.556-4.381 63.383-17.425 89.587-6.948 13.958-4.228 28.987-2.547 44.331 3.111-2.857 4.417-7.67 6.689-11.218 3.671-5.733 8.672-10.614 13.719-15.13 7.962-7.121 14.708-10.029 24.145-14.238 11.031-4.92 21.552 1.547 30.578 6.496 10.712 5.884 7.371 20.549 6.637 29.977-.654 8.36-6.285 18.703-10.869 25.619-3.054 4.605-5.889 9.362-8.796 14.061 4.772 6.246 6.646 10.991 8.791 18.485 7.515 26.258 19.158 50.944 29.18 76.243 23.249-20.288 23.117-57.832 38.191-83.429 4.262-7.229 9.493-14.812 16.857-19.087 3.797-2.205 7.378-4.221 11.918-2.955 3.05.85 6.407 2.473 2.508 4.906-7.45 4.654-15.323 6.387-19.663 14.938-3.244 6.391-8.344 12.987-10.045 20.012-3.28 13.566-10.028 28.636-15.187 41.623-4.95 12.465-17.262 37.514-34.081 34.722-35.668-5.917-39.166-61.268-41.341-89.604-3.335-.523-14.359 10.085-18.116 12.18-8.061 4.494-17.023 8.985-25.435 3.451-2.266 4.205.465 15.033.87 19.856a400.292 400.292 0 0 1 1.285 24.601c.094 4.172 2.994 12.868-.403 16.441-4.387 4.613-13.734 4.535-17.439-.719-7.734-10.953-5.962-29.141-7.104-41.961-1.161-12.992.765-32.967-5.163-44.838-3.678 5.146-3.279 14.373-5.052 20.396-2.358 8.013-4.528 16.458-8.096 24.01-5.975 12.673-13.072 27.685-25.794 34.794-10.992 6.143-31.853 6.021-41.885-2.451-12.265-10.357-16.197-25.144-20.485-39.876-6.211 9.099-10.506 48.969-29.594 40.085-11.963-5.564-19.889-62.981-23.828-63.004-3.391 18.64-4.901 36.23-10.731 54.447-3.076 9.611-10.28 18.541-21.057 13.691-9.469-4.262-9.764-13.527-11.619-22.34-4.878-23.184-4.928-48.453-4.957-72.154-.015-11.502-.98-23.088-2.601-34.465-1.139-8.027-1.894-29.072-8.463-34.137-3.719 2.512 1.342 1.036 0 0zm241.076 96.216c.361.071 12.511-17.097 14.015-19.135 3.12-4.229 7.424-8.145 12.158-10.499 5.361-2.666 11.474 1.551 15.368-.166 4.736-2.088 10.207-22.872 11.836-28.08 1.956-6.252 8.186-30.287-1.815-32.791-12.951-3.243-43.229 23.164-45.969 35.323-1.649 7.307-8.9 12.696-8.988 21.19-.115 11.081 3.053 22.803 3.395 34.158.133.027-.187-6.2 0 0zm2.908-193.462c-8.186 10.926-9.772 26.209-12.082 39.51-2.729 15.703-4.052 33.491.351 49.031 9.794-7.858 14.9-29.115 17.991-40.603 4.269-15.863 5.177-34.759-6.26-47.938-1.541 2.057 2.923 3.368 0 0zm5.524 199.27c3.336 1.375 13.351-7.801 15.72-9.697 6.197-4.959 10.19-11.348 14.369-17.999-11.366-9.648-31.259 16.839-30.089 27.696.25.103-.106-.986 0 0zM297.09 140.627c-6.342-7.789-13.247-15.104-19.463-22.991-5.774-7.325-11.317-17.608-18.636-23.358-9.948 15.604-5.994 65.194-36.058 58.477-13.561-3.031-19.934-20.415-21.998-32.397-.837-4.852-4.537-49.215-6.979-49.572-4.18 9.459-4.646 27.243-4.32 37.445.322 10.049-.967 30.588-10.459 36.328-12.575 7.604-24.422-1.601-29.033-13.458-3.084-7.931-4.447-15.833-6.44-24.036-1.238-5.098-.788-15.265-4.194-19.12-9.063 12.021-16.814 25.833-24.697 38.766-3.879 6.365 4.602 14.494 7.918 21.161 4.396 8.837 7.68 16.188 9.626 25.87 3.351 16.662-4.409 31.091-16.834 41.723-13.609 11.647-29.493 7.997-42.153-2.374-13.556-11.099-1.062-33.202 5.494-44.852 1.861-3.305 12.887-16.028 11.133-19.378-3.844-7.336-9.648-13.471-14.835-19.881-4.753-5.873-9.611-11.438-14.909-16.829-2.341-2.382-3.951-4.991-5.895-7.666-3.604 1.002-6.213 3.491-9.295 5.418C35.606 115.815 8.739 131.961 0 119.929c3.627-4.466 13.412-4.608 18.52-7.244 6.066-3.13 12.292-5.786 18.363-8.874 3.379-1.719 14.648-5.665 12.476-9.639-3.46-6.336-4.446-13.65-6.04-20.593-3.546-15.444-1.186-23.928 4.387-38.212 5.615-14.399 19.965-25.162 35.105-22.105 35.168 7.1 22.65 43.987 4.422 62.729C85.084 78.2 75.232 87.08 76.829 89.282c9.477 13.074 18.736 24.234 30.533 35.176 5.393-6.709 11.045-15.039 14.793-22.794 3.803-7.869 15.202-17.049 14.556-26.286-.64-9.151-4.644-18.67-5.663-27.986-1.523-13.933 3.648-12.172 13.916-15.544 14.588-4.788 12.806 39.467 14.088 47.535 2.789 17.556 5.559 43.326 14.665 58.842 7.719-1.708 7.468-20.098 7.58-25.586.211-10.308 2.299-21.062 3.317-31.374.992-10.034 3.494-20.641 3.696-30.676.206-10.224-6.526-20.306 9.929-18.824 13.354 1.202 14.506 6.072 16.355 17.707 1.626 10.268 2.27 21.266 4.533 31.334 4.938 21.965 4.493 44.691 11.676 66.354 6.975-5.6 9.601-17.476 13.027-25.429 2.404-5.58 4.125-11.784 5.743-17.641.862-3.12 5.752-14.658 4.47-17.863-5.211-13.023-8.494-24.458-5.312-38.325 2.207-9.624 10.279-27.504 22.183-27.769 8.827-.201 18.522-2.124 23.814 7.79 6.3 11.804 1.952 21.027-5.239 30.262-3.239 4.165-7.053 7.856-11.225 11.079-5.749 4.439.969 10.04 4.591 14.514 9.125 11.268 19.18 22.083 28.874 32.854 9.443-15.811 19.242-30.858 27.911-46.966 5.487-10.228 7.173-17.252 7.312-28.976.104-8.319 11.272-17.372 18.727-8.929 4.758 5.389 1.709 21.572 2.186 28.314.689 9.772-.163 19.577.586 29.354 1.471 19.263 1.291 38.146 3.68 57.398 2.05-1.219 7.148-12.037 7.989-15.131 1.971-7.257 7.188-14.773 10.461-21.57 2.789-5.792 6.23-14.023 10.485-18.839 4.226-4.779 3.103-13.956 3.264-19.882.676-24.763 9.866-62.145 40.151-64.63 13.075-1.073 21.256 15.196 20.879 26.657-.485 14.736-14.83 29.032-26.698 36.102-8 4.766-9.038 2.141-9.299 12.683-.193 7.783.438 15.961-.581 23.725-1.008 7.708.366 15.996-.078 23.824-.479 8.434-1.079 16.651.78 24.989 17.185-1.53 26.017-20.346 32.556-33.374 7.736-15.417 14.787-30.286 23.799-45.026 7.927-12.966 33.939-33.304 50.084-24.192 2.594 1.464 4.86 2.479 3.95 5.531-1.191 3.972-10.47-.052-12.984-.035-9.732.067-18.162 5.323-25.053 11.717-10.662 9.895-18.301 23.448-24.532 36.542-6.725 14.131-11.083 30.631-22.703 41.832-11.407 10.995-28.752 20.618-42.549 7.958-12.312-11.302-11.368-34.892-11.368-49.996-1.737-.465-14.273 27.485-16.062 31.288-3.924 8.345-12.369 27.345-24.63 17.462-20.697-16.691-11.555-55.056-13.072-77.971-1.889.617-5.165 8.137-5.893 9.159-4.198 5.901-9.485 11.762-12.387 18.46-2.863 6.607-7.821 11.697-10.376 18.504-.929 2.478 9.395 11.736 11.052 13.953 13.505 18.056 32.819 47.121 13.266 68.252-11.245 12.152-51.749 28.512-60.452 5.119-3.99-10.698-6.611-19.934-1.201-31.435 5.859-12.452 8.079-26.606 16.161-37.876-2.19-2.69-.767 1.07 0 0zm5.77 7.415c-7.581 10.255-12.421 23.015-16.029 35.233-3.727 12.615 1.235 35.044 18.713 31.844 35.19-6.432 11.56-51.518-2.684-67.077-1.329 1.798.709.774 0 0zM71.854 79.138c6.75-8.345 13.313-15.61 18.562-25.101 4.082-7.378 11.537-33.238-5.404-33.012-8.022.107-14.595 16.842-16.97 22.982-3.668 9.485-3.053 27.181 3.812 35.131.881-1.089-1.885-2.183 0 0zm22.998 79.615c-4.433-.173-12.137 20.402-13.798 23.576-6.467 12.362-7.489 28.041 8.952 30.011 26.709 3.19 11.217-41.9 4.846-53.587-.226-.009.637 1.169 0 0zm334.54-93.967c11.759.173 34.624-29.622 23.423-40.068-3.353-3.129-5.483-7.514-9.767-3.746-3.752 3.302-6.393 7.201-7.892 11.977-3.376 10.747-5.307 20.606-5.764 31.837 2.262.033.138-3.384 0 0zm-157.059.561c6.287-5.668 10.751-11.394 15.721-18.188 2.854-3.897-.262-17.116-5.569-17.618-14.6-1.38-12.594 27.654-10.152 35.806 1.269-1.144-1.4-4.675 0 0z"/><path d="M210.417 268.006c3.054-1.993 5.18-7.749 7.265-10.861 7.812 2.263 3.836 10.625.754 16.1-1.879 3.332-3.584 2.727-1.699 6.058 1.516 2.684 2.791 5.491 4.256 8.197 1.207 2.232 9.514 12.515 8.331 15.004-.718 1.513-11.792.832-13.106.826-5.18-.022-9.564-7.036-10.873-11.26-2.123-6.858-4.35-5.095-9.631-3.492-6.409 1.946-13.528.346-19.973-.669-9.979-1.578-12.605-14.481-8.141-22.152 3.313-5.687 6.934-10.427 11.594-15.031 6.062-5.988.949-10.605-2.288-17.714-5.423-11.907-5.892-26.557 4.274-35.837 8.813-8.049 26.299-1.768 31.598 7.832 5.102 9.241-2.502 25.7-10.312 31.604-7.685 5.808-2.467 10.88 1.001 18.183 2.119 4.457 4.344 9.039 6.95 13.212 1.292-.843-.434-.696 0 0zm-24.981-14.738c-7.85 6.498-15.623 16.345-11.528 27.065 2.926 7.659 20.876 2.218 25.534.597-3.496-8.269-7.418-21.474-14.006-27.662-.588.485.279.262 0 0zm9.42-17.691c10.33-9.812 18.232-29.062 1.222-35.866-9.052-3.619-9.663 8.826-9.138 13.948.802 7.781 4.81 14.767 7.916 21.918.752-.715-1.93-4.445 0 0zM356.804 16.411c-10.345-1.975-11.426-16.907-.612-16.398 11.062.52 12.397 17.473.612 16.398-1.407-.268 2.815.257 0 0zM149.164 341.989c2.88-8.318 10.371-9.163 15.731-1.844 4.093 5.584-13.868 17.165-15.731 1.844.144-.416.113.928 0 0z"/></g></svg>