<?xml version="1.0" encoding="utf-8"?>
<!-- Generator: Adobe Illustrator 16.0.0, SVG Export Plug-In . SVG Version: 6.00 Build 0)  -->
<!DOCTYPE svg PUBLIC "-//W3C//DTD SVG 1.1//EN" "http://www.w3.org/Graphics/SVG/1.1/DTD/svg11.dtd">
<svg version="1.1" id="Layer_1" xmlns="http://www.w3.org/2000/svg" xmlns:xlink="http://www.w3.org/1999/xlink" x="0px" y="0px"
	 width="123.367px" height="199.975px" viewBox="0 0 123.367 199.975" enable-background="new 0 0 123.367 199.975"
	 xml:space="preserve">
<g>
	<path fill-rule="evenodd" clip-rule="evenodd" d="M62.696,0.128c4.492,7.781,8.938,15.59,13.498,23.331
		c1.792,3.042,3.617,5.891-2.255,6.988c4.59,7.993,8.796,15.332,13.017,22.661c3.743,6.5,3.75,6.496-3.235,9.644
		c6.207,10.658,12.391,21.278,18.576,31.899c0.753,1.293,1.468,2.614,2.267,3.878c1.822,2.879,1.486,4.634-2.313,4.919
		c-1.804,0.135-3.585,0.558-6.144,0.977c0.951,1.908,1.627,3.501,2.5,4.978c7.708,13.04,15.473,26.046,23.174,39.091
		c2.673,4.528,2.159,5.459-3.032,5.475c-13.997,0.042-27.993,0.015-41.99,0.015c-1.798,0-3.597,0-5.937,0
		c0,15.489,0,30.554,0,45.864c-6.146,0-11.755,0-17.933,0c0-14.964,0-30.017,0-45.608c-2.287-0.101-4.041-0.243-5.795-0.245
		c-14.163-0.019-28.327,0.018-42.49-0.026c-5.191-0.016-5.691-0.935-3.002-5.485c7.622-12.898,15.301-25.762,22.939-38.648
		c0.906-1.53,1.697-3.128,2.595-4.792c-0.795-0.487-1.158-0.867-1.576-0.942c-9.047-1.633-9.046-1.625-4.476-9.46
		c6.19-10.612,12.376-21.228,18.674-32.029c-1.212-0.532-1.939-1.083-2.709-1.151c-4.109-0.36-4.154-2.312-2.377-5.344
		c4.461-7.61,8.83-15.275,13.217-22.929c0.401-0.699,0.672-1.472,1.162-2.566c-4.727-1.431-3.839-3.979-1.897-7.187
		c4.653-7.685,9.045-15.527,13.542-23.306C61.363,0.128,62.03,0.128,62.696,0.128z"/>
</g>
</svg>
