<?xml version="1.0" encoding="utf-8"?>
<!-- Generator: Adobe Illustrator 16.0.0, SVG Export Plug-In . SVG Version: 6.00 Build 0)  -->
<!DOCTYPE svg PUBLIC "-//W3C//DTD SVG 1.1//EN" "http://www.w3.org/Graphics/SVG/1.1/DTD/svg11.dtd">
<svg version="1.1" id="Layer_1" xmlns="http://www.w3.org/2000/svg" xmlns:xlink="http://www.w3.org/1999/xlink" x="0px" y="0px"
	 width="368px" height="181.333px" viewBox="0 0 368 181.333" enable-background="new 0 0 368 181.333" xml:space="preserve">
<g>
	<g>
		<path fill-rule="evenodd" clip-rule="evenodd" d="M85.012,87.584c2.031-2.376,3.062-4.871,3.89-7.417
			c1.154-3.545,2.189-7.134,3.106-10.748c0.611-2.408,1.437-4.825,0.91-7.398c-0.337-1.65-0.623-3.311-0.893-4.974
			c-0.31-1.91-0.589-3.825-0.859-5.742c-0.39-2.772-0.761-5.548-1.137-8.323c-0.532-3.932-0.658-7.875-0.179-11.818
			c0.315-2.595,0.621-5.196,1.087-7.766c0.349-1.925,1.305-3.527,3.384-4.061c1.415-0.362,2.741-0.311,4.098,0.526
			c1.466,0.905,2.878,1.793,3.609,3.401c0.456,1.001,0.832,2.054,1.104,3.118c0.925,3.636,0.884,7.335,0.267,10.991
			c-0.49,2.902-1.315,5.748-1.984,8.62c-0.406,1.745-0.785,3.496-1.201,5.24c-0.29,1.214-0.757,2.404-0.895,3.632
			c-0.137,1.22,0.04,2.476,0.079,3.715c0.133,0.017,0.266,0.033,0.398,0.049c0.659-1.321,1.361-2.623,1.97-3.967
			c1.468-3.247,3.098-6.426,5.557-9.013c1.872-1.97,4.211-3.51,7.05-3.561c2.472-0.044,4.653,0.67,6.354,2.862
			c1.23,1.588,2.476,3.119,2.896,5.058c0.639,2.937,1.135,5.914,1.495,8.897c0.279,2.31,0.199,4.66,0.39,6.983
			c0.107,1.314,0.518,2.603,0.65,3.917c0.215,2.133,0.259,4.284,0.477,6.416c0.215,2.093,0.521,4.178,0.855,6.255
			c0.291,1.805,0.701,3.59,1.006,5.394c0.082,0.477-0.034,0.987,0.096,1.571c0.352-0.609,0.86-1.178,1.024-1.833
			c0.65-2.607,1.257-5.229,1.757-7.869c0.635-3.345,1.119-6.718,1.73-10.068c0.354-1.938,0.636-3.925,1.303-5.763
			c0.749-2.061,0.359-4.029,0.174-6.054c-0.146-1.606-0.428-3.234-0.294-4.823c0.307-3.611,0.698-7.227,1.306-10.799
			c0.583-3.431,1.995-6.549,4.975-8.608c1.002-0.692,2.212-1.216,3.59-0.768c0.703,0.229,1.532,0.084,2.224,0.333
			c1.426,0.512,2.824,1.122,4.178,1.805c0.473,0.239,0.911,0.747,1.141,1.237c0.737,1.578,1.622,3.151,1.983,4.827
			c0.53,2.451-0.109,4.779-1.584,6.887c-1.913,2.733-4.696,4.39-7.382,6.166c-0.697,0.46-1.025,0.952-0.928,1.758
			c0.466,3.877,0.927,7.754,1.396,11.631c0.345,2.854,0.614,5.72,1.085,8.553c0.272,1.642,0.829,3.243,1.342,4.835
			c0.809,2.511,1.688,5,2.585,7.64c0.482-0.261,0.744-0.323,0.881-0.488c1.752-2.106,3.314-4.312,4.074-7.011
			c1.339-4.765,2.562-9.566,4.64-14.095c1.42-3.094,2.609-6.298,4.11-9.351c0.976-1.986,2.358-3.771,3.497-5.682
			c1.911-3.206,4.934-5.021,8.149-6.585c1.556-0.757,3.161-0.78,4.733,0.06c0.766,0.41,0.718,0.917,0.179,1.657
			c-0.677,0.928-1.518,1.015-2.521,0.975c-2.634-0.104-4.73,1.217-6.184,3.146c-1.908,2.537-3.508,5.328-5.034,8.121
			c-0.972,1.776-1.572,3.754-2.339,5.641c-0.593,1.46-1.189,2.919-1.777,4.38c-1.581,3.922-3.132,7.857-4.746,11.765
			c-0.901,2.179-1.604,4.528-2.944,6.414c-1.605,2.258-3.809,4.228-6.852,4.218c-1.284-0.004-2.561-0.811-3.854-1.21
			c-0.817-0.253-1.349-0.775-1.937-1.396c-2.17-2.292-3.126-5.129-3.811-8.071c-0.673-2.89-1.141-5.828-1.706-8.743
			c-0.04-0.205-0.144-0.397-0.414-0.618c-0.239,1.202-0.493,2.402-0.714,3.607c-0.503,2.747-0.894,5.518-1.512,8.238
			c-0.546,2.406-1.219,4.799-2.055,7.119c-0.738,2.049-3.517,3.404-5.558,2.843c-1.612-0.442-2.684-1.68-3.781-2.879
			c-1.468-1.604-1.918-3.637-2.67-5.572c-1.302-3.351-2.056-6.784-2.354-10.361c-0.351-4.217-0.874-8.42-1.327-12.628
			c-0.438-4.068-0.802-8.146-1.368-12.197c-0.227-1.627-0.641-3.303-1.915-4.735c-1.479,1.066-2.983,2.062-3.805,3.707
			c-1.358,2.721-3.11,5.2-4.627,7.819c-1.525,2.636-2.894,5.375-2.86,8.561c0.013,1.307-0.251,2.653-0.019,3.913
			c0.596,3.231,1.407,6.423,2.112,9.636c0.17,0.77,0.201,1.573,0.401,2.333c0.387,1.468,0.924,2.9,1.265,4.378
			c0.65,2.821-1.759,4.472-3.867,4.803c-0.387,0.062-0.865-0.386-1.285-0.627c-1.609-0.919-2.671-2.214-2.971-4.109
			c-0.358-2.266-0.767-4.525-1.219-6.775c-0.477-2.371-1.029-4.727-1.596-7.3c-0.699,2.408-1.269,4.563-1.956,6.681
			c-0.838,2.584-1.582,5.225-2.722,7.676c-1.149,2.468-3.101,4.404-6.052,4.351c-3.17-0.057-6.219-1.456-7.617-4.927
			c-0.824-2.047-1.89-4.015-2.514-6.117c-0.853-2.879-1.555-5.825-2.024-8.79c-0.827-5.213-1.646-10.446-2.065-15.702
			c-0.44-5.508-0.379-11.054-0.596-16.58c-0.123-3.117-0.426-6.226-0.536-9.343c-0.106-3.005-0.091-6.016-0.066-9.023
			c0.002-0.333,0.357-0.879,0.645-0.952c0.785-0.201,1.621-0.255,2.438-0.261c0.445-0.003,0.887,0.282,1.339,0.316
			c2.233,0.169,2.948,1.397,3.166,3.397c0.273,2.496,0.218,5.026,0.393,7.535c0.14,1.997,0.42,3.985,0.623,5.978
			c0.128,1.251,0.197,2.507,0.343,3.756c0.31,2.661,0.663,5.316,0.969,7.978c0.095,0.816,0.05,1.648,0.145,2.465
			c0.382,3.308,0.826,6.609,1.184,9.92C79.95,61.96,80,64.159,80.271,66.33c0.52,4.127,1.062,8.254,1.751,12.355
			c0.358,2.137,0.987,4.237,1.616,6.317C83.894,85.849,84.474,86.598,85.012,87.584z M143.02,51.565
			c0.138,0.065,0.275,0.13,0.413,0.195c1.691-1.568,3.485-3.041,5.052-4.724c3.163-3.398,2.09-9.422-1.761-11.55
			c-0.597-0.329-1.043-0.37-1.507,0.177c-1.498,1.768-2.138,3.848-2.289,6.118c-0.101,1.503-0.324,3.005-0.304,4.505
			C142.649,48.047,142.879,49.806,143.02,51.565z M97.189,46.891c0.126,0.016,0.252,0.032,0.378,0.048
			c0.44-1.642,0.938-3.271,1.306-4.927c0.308-1.388,0.323-2.851,0.715-4.209c1.117-3.877,0.857-7.757,0.166-11.634
			c-0.304-1.706-1.137-3.183-2.812-4.271C96.086,30.347,96.112,38.625,97.189,46.891z"/>
		<path fill-rule="evenodd" clip-rule="evenodd" d="M49.878,6.582c3.518-0.103,6.776-0.445,11.288-0.375
			c2.25,0.035,4.083,0.083,6.018,0.834c2.482,0.75,5.914,0.851,10.815,2.5c2.297,0.349,4.281,1.095,6.596,1.29
			c2.532,0.212,5.076,0.409,7.614,0.399c2.144-0.008,4.314-0.161,6.423-0.538c2.708-0.483,4.454-0.541,7.102-1.298
			c2.401-0.688,4.75-1.565,7.099-2.42c0.438-0.16,0.929-0.537,1.117-0.943c0.407-0.875,1.06-0.986,1.769-0.674
			c1.295,0.569,2.572,1.199,3.785,1.925c0.695,0.417,0.282,1.682-0.577,2.241c-3.034,1.975-6.476,2.834-9.918,3.714
			c-1.446,0.37-2.857,0.906-4.318,1.198c-1.579,0.315-3.193,0.554-4.8,0.612c-3.511,0.126-7.031,0.235-10.539,0.118
			c-2.202-0.073-4.391-0.574-6.587-0.874c-0.468-0.063-1.918-0.174-4.359-0.577c-3.893-0.644-7.754-1.367-11.653-1.973
			c-3.5-0.719-5.562-0.673-8.062-0.469c-1.728,0.142-2.742,0.036-4.812,0.312c-0.943,0.126-1.398,0.029-2.688,0.25
			c-3.553,0.351-6.976,1.34-10.646,2.441c-3.572,1.373-5.344,2.309-7.917,5.226c-1.993,2.259-2.976,3.451-4.375,6.395
			c-0.273,0.915-1.812,0.812-2.576,0.869c-0.526-0.329-1.135-0.35-1.559-1.104c-0.442-0.789-0.351-1.378-0.064-1.955
			c1.386-2.803,2.437-5.841,4.805-8.029c3.834-3.541,9.208-6.662,14.32-7.837C45.24,7.365,47.337,7.053,49.878,6.582z"/>
	</g>
	<g>
		<path fill="#FFFFFF" d="M87.854,114.982c1.627,0.43,2.521-1.252,2.816-3.085c0.227-1.396-1.088-2.478-2.838-2.535
			c-1.322-0.043-2.904,0.986-2.955,1.923C84.768,113.314,86.025,114.876,87.854,114.982z"/>
		<path fill-rule="evenodd" clip-rule="evenodd" d="M362.018,133.618c-1.449-1.283-2.994-2.491-4.639-3.506
			c-1.764-1.089-3.697-0.385-5.455,0.142c-2.592,0.776-4.992,2.032-7.146,3.717c-1.143,0.894-2.326,1.734-3.582,2.665
			c-1.124-1.427-2.227-2.773-3.25-4.175c-0.156-0.213-0.068-0.766,0.105-1.032c1.279-1.965,2.09-4.102,2.529-6.395
			c0.459-2.387,0.232-4.565-1.11-6.738c-0.976-1.578-2.488-2.193-3.876-3.05c-2.373-1.465-4.009-1.173-6.072,0.771
			c-1.654,1.556-2.497,3.466-2.954,5.677c-0.965,4.671-0.153,8.921,2.606,12.806c0.504,0.708,1.021,1.412,1.455,2.162
			c0.117,0.203,0.051,0.623-0.086,0.847c-1.395,2.267-2.682,4.619-4.281,6.735c-1.357,1.797-3.035,3.365-4.664,4.937
			c-0.881,0.847-1.955,1.493-3.074,2.328c-0.595-4.082-0.002-13.078,1.062-16.637c0.73-2.445,1.017-4.934,0.672-7.454
			c-0.075-0.548-0.598-1.289-1.093-1.48c-2.244-0.87-4.541-1.619-6.848-2.317c-0.779-0.236-1.062-0.54-0.873-1.342
			c0.299-1.284,0.546-2.58,0.797-3.874c0.375-1.935,0.189-3.843-0.637-5.611c-0.594-1.268-1.435-2.727-2.996-2.6
			c-2.061,0.168-4.578-0.094-5.413,2.661c-0.573,1.892-1.566,3.868-1.408,5.724c0.274,3.211,1.675,6.154,4.601,7.991
			c0.854,0.537,1.029,1.189,0.75,2.021c-1.127,3.355-2.258,6.708-3.439,10.044c-1.07,3.024-2.191,6.03-3.321,9.032
			c-0.703,1.868-1.876,3.273-3.776,3.788c-0.51-0.668-0.953-1.174-1.31-1.736c-0.337-0.53-0.708-1.087-0.851-1.684
			c-0.477-1.998-0.794-4.033-1.294-6.024c-0.602-2.394-1.392-4.741-1.954-7.144c-0.132-0.568,0.158-1.4,0.538-1.892
			c1.017-1.318,2.224-2.486,3.279-3.777c0.468-0.572,0.806-1.271,1.102-1.957c1.22-2.837,0.872-5.766,0.416-8.69
			c-0.096-0.616-0.17-1.271-0.438-1.818c-1.254-2.556-3.387-4.128-6.171-4.195c-2.575-0.062-3.767,0.243-4.69,2.948
			c-0.609,1.783-1.147,3.612-1.477,5.463c-0.32,1.796-0.564,3.663-0.436,5.47c0.286,4.013,0.852,8.006,1.241,12.014
			c0.078,0.801-0.037,1.648-0.215,2.44c-0.412,1.827-0.883,3.643-1.393,5.445c-0.334,1.182-0.777,2.333-1.171,3.499
			c-0.121-0.033-0.244-0.065-0.364-0.099c-0.073-0.175-0.183-0.344-0.212-0.525c-0.419-2.678-0.874-5.352-1.224-8.039
			c-0.393-3.002-0.742-6.013-1.012-9.029c-0.333-3.727-0.555-7.464-0.865-11.193c-0.028-0.351-0.276-0.745-0.537-1.005
			c-1.457-1.459-5.188-1.733-6.883-0.542c0.896,3.373,1.434,6.793,0.818,10.264c-0.437,2.461-1.054,4.894-1.685,7.315
			c-1.113,4.273-2.241,8.545-3.487,12.782c-0.35,1.188-1.043,2.32-2.318,3.297c-0.526-3.527-1.116-6.734-1.461-9.968
			c-0.545-5.114-0.944-10.244-1.371-15.369c-0.205-2.462-0.327-4.932-0.5-7.397c-0.082-1.158-0.367-2.355-1.504-2.806
			c-1.373-0.546-2.852-0.911-4.318-1.106c-1.113-0.147-1.385,0.434-1.219,1.587c0.099,0.69,0.053,1.423-0.052,2.117
			c-0.643,4.25-1.326,8.495-1.989,12.741c-0.387,2.479-0.707,4.971-1.161,7.438c-0.542,2.932-1.126,5.858-1.828,8.755
			c-0.334,1.382-0.913,2.72-1.519,4.014c-0.197,0.423-0.827,0.645-1.259,0.958c-0.197-0.401-0.513-0.787-0.572-1.208
			c-0.318-2.247-0.547-4.507-0.853-6.756c-0.588-4.339-1.288-8.664-1.787-13.012c-0.331-2.888-0.33-5.813-0.591-8.712
			c-0.28-3.101-2.797-5.578-5.596-5.278c-1.838,0.199-3.811-0.216-5.526,0.918c-1.148,0.76-2.564,1.206-3.527,2.138
			c-2.581,2.496-4.252,5.637-5.531,8.96c-0.362,0.943-0.802,1.707-1.637,2.252c-0.734,0.481-1.434,1.023-2.197,1.455
			c-0.933,0.528-1.915,0.97-3.128,1.574c0.021-0.865-0.001-1.322,0.051-1.77c0.101-0.861,0.505-1.777,0.32-2.563
			c-0.521-2.218-1.224-4.399-1.957-6.56c-0.509-1.5-1.614-2.415-3.221-2.677c-0.349-0.057-0.687-0.211-1.018-0.349
			c-2.438-1.011-4.879,0.086-5.6,2.65c-0.312,1.111-0.364,2.308-0.441,3.471c-0.145,2.162,0.154,4.316,1.646,5.931
			c1.378,1.492,3.125,2.637,4.647,4.005c0.496,0.444,1.022,1.063,1.145,1.68c0.7,3.509-0.286,6.73-2.03,9.733
			c-0.59,1.016-1.377,1.958-2.228,2.773c-1.124,1.074-3.195,0.5-3.444-0.905c-1.271-7.166-2.909-14.301-1.968-21.67
			c0.293-2.291,0.439-4.605,0.857-6.872c0.643-3.488,1.417-6.953,2.215-10.411c1.165-5.051,1.6-10.124,0.061-15.14
			c-0.354-1.152-1.415-2.454-2.489-2.946c-2.55-1.168-5.44-0.51-6.76,3.004c-1.041,2.771-1.628,5.573-1.766,8.512
			c-0.169,3.583-0.579,7.16-0.617,10.742c-0.035,3.338,0.402,6.679,0.418,10.02c0.029,5.987,0.09,11.959,1.225,17.87
			c0.2,1.042,0.49,2.218,0.203,3.17c-0.557,1.841-1.461,3.583-2.29,5.334c-0.481,1.018-1.434,1.781-2.482,1.437
			c-0.621-0.204-1.219-1.249-1.366-2.005c-0.762-3.955-1.391-7.936-2.036-11.913c-0.362-2.239-0.671-4.486-0.99-6.732
			c-0.479-3.389-0.652-6.629,0.329-10.121c1.259-4.484,1.55-9.255,2.078-13.923c0.286-2.522,0.183-5.089,0.276-7.635
			c0.115-3.132-0.869-5.641-3.757-7.256c-2.315-1.295-3.785-1.077-5.33,1.088c-0.316,0.443-0.549,0.974-0.705,1.5
			c-0.879,2.97-1.896,5.916-2.518,8.941c-0.394,1.913-0.243,3.952-0.222,5.933c0.036,3.63,0.125,7.261,0.246,10.89
			c0.241,7.239,1.211,14.39,2.702,21.474c0.13,0.619,0.364,1.312,0.208,1.877c-0.485,1.755-1.085,3.485-1.739,5.187
			c-0.454,1.182-0.999,2.342-1.637,3.434c-0.456,0.779-1.088,0.72-1.404-0.095c-0.605-1.556-1.164-3.136-1.637-4.736
			c-0.418-1.415-0.705-2.87-1.031-4.311c-0.765-3.378-1.549-6.752-2.237-10.145c-0.093-0.458,0.184-1.154,0.528-1.509
			c1.04-1.075,1.958-2.204,2.388-3.653c0.61-2.059,1.496-4.098,1.694-6.2c0.3-3.202-2.367-7.214-6.154-8.518
			c-2.469-0.85-3.892-0.5-5.112,1.415c-1.261,1.978-2.387,4.209-2.869,6.479c-0.807,3.784-0.679,7.692,0.032,11.524
			c0.517,2.779,1.109,5.547,1.773,8.295c0.712,2.941,1.499,5.868,2.351,8.772c0.488,1.667,0.168,2.517-1.567,3.1
			c-0.292,0.099-0.878-0.06-1.048-0.298c-2.463-3.465-4.01-7.306-4.731-11.507c-0.42-2.446-0.614-4.995-2.291-7.051
			c-0.164-0.201-0.209-0.499-0.261-0.629c0.82-1.063,1.578-2.027,2.316-3.006c1.983-2.632,2.462-5.538,1.926-8.783
			c-0.362-2.192-1.345-3.583-3.245-4.745c-1.849-1.131-3.696-1.359-5.445-0.514c-3.011,1.454-5.556,3.571-7.127,6.652
			c-0.296,0.583-0.641,1.142-0.963,1.711c-0.133-0.044-0.266-0.089-0.398-0.134c0.161-0.604,0.287-1.221,0.489-1.811
			c0.382-1.117,0.91-2.193,1.189-3.332c0.339-1.389,0.472-2.826,0.715-4.239c0.417-2.427,1.115-4.84,1.216-7.28
			c0.161-3.888,0.388-7.847-0.846-11.627c-0.854-2.614-1.33-5.557-4.838-6.298c-1.528-0.323-3.07-0.39-4.066,0.836
			c-1.567,1.93-2.792,4.089-3.032,6.641c-0.414,4.437,0.188,8.833,0.594,13.236c0.138,1.511,0.155,3.034,0.325,4.54
			c0.274,2.447,0.656,4.883,0.943,7.329c0.431,3.685,0.836,7.373,1.221,11.063c0.168,1.627,0.605,3.325,0.32,4.88
			c-0.717,3.907-1.701,7.771-2.737,11.609c-0.393,1.456-0.963,2.954-2.384,3.966c-0.117-0.34-0.264-0.592-0.285-0.855
			c-0.421-5.487-0.877-10.973-1.222-16.464c-0.238-3.781-0.265-7.574-0.489-11.355c-0.155-2.62-0.344-5.252-0.788-7.833
			c-0.263-1.529-0.82-3.113-1.646-4.417c-1.601-2.523-4.135-3.972-6.998-4.567c-1.076-0.224-2.544,0.094-3.46,0.714
			c-2.648,1.791-4.204,4.518-5.46,7.403c-0.507,1.162-0.973,2.342-1.457,3.514c-0.661-1.873-1.037-3.659-1.368-5.453
			c-0.162-0.875-0.563-1.549-1.474-1.662c-1.693-0.209-3.396-0.412-5.097-0.441c-0.716-0.012-1.502,0.391-1.411,1.392
			c0.095,1.025,0.34,2.043,0.352,3.066c0.034,3.109,1.146,6.162,0.498,9.313c0.06,2.116,0.359,4.377,1.354,6.349
			c0.087-0.325,0.174-0.65,0.258-0.976c0.978,4.573,1.752,9.121,2.534,13.668c0.345,2.006,0.618,4.03,1.092,6.006
			c0.277,1.154,0.485,2.499,1.759,3.091c2.265,1.054,5.164-0.941,4.991-3.458c-0.171-2.507-0.516-5.002-0.689-7.51
			c-0.332-4.816-2.123-9.41-2.144-14.263c-0.004-0.959,0.158-1.968,0.479-2.87c0.614-1.722,1.319-3.422,2.129-5.062
			c1.284-2.603,2.682-5.15,4.041-7.716c0.429-0.812,1.111-0.901,1.936-0.677c0.881,0.24,0.73,0.914,0.746,1.542
			c0.065,2.673,0.077,5.349,0.219,8.019c0.181,3.385,0.445,6.766,0.715,10.145c0.443,5.564,0.854,11.133,1.417,16.685
			c0.208,2.058,0.809,4.079,2.236,5.707c0.764,0.871,1.486,1.806,2.374,2.532c1.277,1.045,2.668,1.536,4.427,0.848
			c1.327-0.519,1.932-1.594,2.674-2.56c1.034-1.344,1.996-2.769,2.785-4.267c0.542-1.027,0.739-2.237,1.09-3.365
			c0.08,0.028,0.158,0.056,0.237,0.084c0.369,1.914,0.711,3.835,1.116,5.742c0.596,2.806,2.023,3.881,4.91,3.772
			c2.079-0.079,3.269-1.603,2.902-3.464c-0.421-2.131-0.664-4.298-0.969-6.451c-0.266-1.875-0.565-3.748-0.743-5.632
			c-0.074-0.791-0.417-1.781,0.625-2.288c1.423-0.694,2.865-1.348,4.302-2.014c0.532-0.246,1.07-0.477,1.659-0.738
			c0.14,0.301,0.279,0.501,0.33,0.721c0.443,1.902,0.874,3.808,1.303,5.713c0.77,3.413,1.246,6.881,4.086,9.484
			c1.999,1.832,5.558,2.822,7.964,1.651c0.702-0.341,1.304-0.884,1.951-1.335c-0.178,0.201-0.355,0.401-0.534,0.602
			c0.983,0.699,1.942,1.437,2.958,2.085c0.75,0.479,1.59,1.211,2.363,1.18c1.676-0.068,3.445-0.294,4.97-0.942
			c1.511-0.642,3.018-1.574,3.392-3.566c0.24-1.272,0.865-2.472,1.396-3.917c0.662,1.042,1.231,1.85,1.712,2.708
			c1.911,3.414,5.579,3.562,8.417,2.743c1.116-0.322,2.273-0.756,3.036-1.919c0.596-0.911,1.595-1.558,2.438-2.345
			c0.344,0.538,0.636,1.17,1.083,1.659c1.341,1.467,2.895,2.469,5.029,2.417c2.458-0.059,4.422-1.229,6.373-2.494
			c0.596-0.387,1.194-0.779,1.737-1.235c1.668-1.401,2.349-3.445,2.943-5.371c0.852-2.759,1.221-5.667,1.829-8.504
			c0.083-0.385,0.264-0.945,0.547-1.06c1.715-0.696,3.473-1.287,5.243-1.922c-0.059,0.585-0.105,1.29-0.204,1.988
			c-0.655,4.647-0.264,8.988,3.254,12.593c0.956,0.979,1.918,1.413,3.25,1.367c2.927-0.102,4.113-2.331,5.143-4.441
			c1.038-2.125,1.597-4.484,2.362-6.742c0.325-0.958,0.642-1.918,1.031-3.084c0.193,0.373,0.297,0.499,0.326,0.641
			c0.638,3.081,1.13,6.201,1.945,9.234c0.565,2.099,1.367,4.195,2.44,6.078c1.068,1.874,3.333,2.296,5.16,3.204
			c0.274,0.136,0.728,0.051,1.047-0.068c1.239-0.462,2.584-0.974,3.146-2.215c1.026-2.271,2.125-4.58,2.646-6.991
			c1.102-5.095,1.846-10.268,2.75-15.407c0.076-0.432,0.241-0.849,0.409-1.429c0.401,3.941,0.616,7.703,1.21,11.403
			c0.546,3.413,1.252,6.844,2.343,10.114c1.132,3.394,4.541,4.402,7.058,2.422c1.699-1.337,2.941-3.072,3.569-5.128
			c0.813-2.659,1.439-5.375,2.144-8.068c0.277-1.061,0.548-2.124,0.832-3.227c0.443,2.942,0.72,5.81,1.342,8.602
			c0.528,2.37,1.563,4.492,3.593,6.159c2.111,1.734,5.671,1.656,6.763-1.989c0.55-1.833,1.434-3.566,2.191-5.407
			c0.331,0.995,0.502,2,0.973,2.838c1.901,3.389,4.765,5.385,8.665,6.014c2.455,0.396,3.547,0.106,5.133-2.363
			c1.869-2.912,2.994-6.142,4.077-9.394c1.435-4.305,2.876-8.607,4.327-12.906c0.201-0.593,0.479-1.16,0.844-2.033
			c0.646,0.523,1.494,0.87,1.575,1.348c0.199,1.154,0.152,2.383,0.007,3.557c-0.643,5.186-1.582,10.327-0.854,15.617
			c0.348,2.532,1.939,3.967,3.724,5.225c1.42,1,5.798,0.052,7.048-1.225c0.945-0.963,1.811-2.006,2.779-2.942
			c2.418-2.335,4.395-4.98,5.977-7.952c0.626-1.179,1.488-2.233,2.264-3.374c0.49,0.463,0.866,0.806,1.225,1.166
			c0.396,0.396,0.778,0.804,1.16,1.212c1.021,1.09,1.041,1.519,0.095,2.642c-2.387,2.834-4.852,5.61-6.21,9.149
			c-0.369,0.964-0.863,1.882-1.311,2.816c-1.393,2.909-2.133,5.905-1.408,9.152c0.436,1.953,1.297,3.708,2.629,5.131
			c1.963,2.102,4.059,4.022,7.389,3.431c1.764-0.313,3.283-1.161,4.926-1.688c2.639-0.846,4.057-3.022,5.867-4.748
			c0.812-0.772,1.248-2.007,1.666-3.104c0.394-1.031,0.447-2.188,0.81-3.235c1.622-4.673-0.221-8.996-1.571-13.249
			c-0.824-2.595-2.572-4.917-4.043-7.277c-0.518-0.831-0.361-1.257,0.254-1.802c1.223-1.081,2.357-2.272,3.648-3.26
			c2.33-1.784,5.004-2.686,7.949-2.244c1.437,0.215,2.656,0.982,3.303,2.436c0.266,0.597,2.023,1.242,2.635,1.056
			C362.629,136.032,363.006,134.497,362.018,133.618z M139.484,120.656c-1.048-8.048-1.559-16.096-0.659-24.208
			c1.384,3,2.665,5.964,2.227,9.447c-0.516,4.104-0.701,8.249-1.059,12.373C139.921,119.075,139.714,119.869,139.484,120.656z
			 M144.04,140.004c-0.062,0.049-0.223-0.028-0.716-0.108c0.415-1.139,0.659-2.185,1.158-3.088c0.569-1.03,1.74-1.368,2.794-0.903
			c0.306,0.134,0.667,0.923,0.616,0.967C146.642,137.955,145.342,138.981,144.04,140.004z M150.486,132.912
			c-0.247,0.747-0.572,0.903-1.319,0.64c-1.989-0.701-3.98-0.975-5.655,0.727c-0.482,0.49-0.815,1.125-1.231,1.713
			c-1.334-1.925-1.232-3.423,0-5.163c1.141-1.609,2-3.417,3.138-5.029c0.923-1.308,2.139-2.336,3.835-2.629
			c0.868-0.15,1.359,0.236,1.473,0.987C151.169,127.083,151.445,130.012,150.486,132.912z M168.26,131.436
			c-0.15-0.044-0.301-0.088-0.451-0.133c-0.265-3.779-0.53-7.558-0.804-11.461c1.821,0.51,2.426,1.856,2.498,3.204
			c0.112,2.086-0.095,4.2-0.318,6.287C169.107,130.058,168.581,130.735,168.26,131.436z M184.638,103.306
			c-0.201,3.81-0.451,7.617-0.739,11.421c-0.064,0.842-0.361,1.665-0.552,2.497c-0.104,0.003-0.208,0.007-0.313,0.01
			c-0.083-0.869-0.201-1.736-0.243-2.607c-0.115-2.419-0.277-4.84-0.271-7.261c0.005-2.161,0.182-4.322,0.35-6.479
			c0.033-0.431,0.365-0.838,0.616-1.38C184.574,100.694,184.706,102.002,184.638,103.306z M199.174,120.181
			c-0.055-0.918-0.188-1.839-0.149-2.753c0.155-3.697,0.376-7.373,0.07-11.095c-0.208-2.539,0.35-5.142,0.598-7.712
			c0.035-0.369,0.259-0.72,0.428-1.164c1.515,1.313,1.669,3.056,1.642,4.674c-0.05,2.981-0.3,5.968-0.648,8.931
			c-0.31,2.648-0.858,5.268-1.316,7.898C199.727,119.377,199.579,119.782,199.174,120.181z M211.177,133.447
			c-1.176-1.679-1.738-3.557-1.856-5.799C210.793,129.448,211.459,131.292,211.177,133.447z M233.595,133.511
			c-0.81,2.464-1.234,5.053-2.019,7.527c-0.763,2.406-1.767,4.735-2.742,7.301c-1.186-3.148,2.583-22.182,4.624-24.024
			C234.256,127.382,234.619,130.397,233.595,133.511z M290.516,130.332c-1.08-2.239-0.617-10.863,0.873-15.157
			c0.4,0.303,0.883,0.489,1.062,0.833c2.393,4.59,1.387,10.173-1.628,14.166C290.76,130.257,290.62,130.281,290.516,130.332z
			 M309.018,120.775c-0.997-1.243-0.936-5.801,0.035-7.446C310.316,114.678,310.323,118.477,309.018,120.775z M335.994,128.756
			c-1.363-2.205-2.623-4.364-2.671-6.98c-0.011-0.59-0.087-1.214,0.073-1.762c0.129-0.442,0.498-1.016,0.884-1.139
			c0.699-0.221,1.29,0.052,1.776,0.798c1.236,1.896,0.877,3.953,0.852,5.989C336.895,126.749,337.111,127.908,335.994,128.756z
			 M340.799,163.756c-0.247,1.757-0.703,3.507-1.293,5.181c-0.229,0.649-0.996,1.335-1.666,1.559
			c-1.859,0.621-3.619,0.567-5.398-0.712c-2.799-2.014-3.639-4.867-3.544-7.942c0.062-1.959,0.853-3.95,1.584-5.822
			c1.366-3.494,3.44-6.604,5.718-9.573c0.439-0.573,0.982-1.065,1.582-1.704c1.276,2.087,2.29,3.969,2.576,6.213
			c0.239,1.881,0.953,3.727,1.002,5.601C341.424,158.951,341.137,161.374,340.799,163.756z"/>
		<g>
			<path fill-rule="evenodd" clip-rule="evenodd" d="M85.154,116.415c-0.149,0.089-0.878-0.408-1.029-0.305
				c-2.229,1.538-3.122,0.792-4.476-1.583c-1.13-1.981-2.172-4.07-3.64-5.777c-1.091-1.271-2.69-2.294-4.267-2.908
				c-1.822-0.708-3.198,0.321-3.231,1.737c-0.108,4.569-0.108,9.153-0.521,13.697c-0.486,5.318-1.2,10.63-2.128,15.889
				c-0.668,3.782-1.85,7.472-2.803,11.203c-0.229-0.031-0.457-0.063-0.685-0.095c-1.623-1.189-2.841-2.712-3.129-3.952
				c-1.062-4.557-2.267-9.081-3.244-13.654c-0.573-2.686-0.803-5.445-1.215-8.167c-0.221-1.464-0.918-2.76-2.391-3.098
				c-2.74-0.627-2.998-0.996-5.793-1.245c-1.117-0.1-2.848-0.182-3.104,1.663c-0.289,2.083-0.458,4.185-0.631,6.281
				c-0.267,3.202-0.321,6.432-0.772,9.604c-1.174,8.229-1.574,16.589-4.067,24.599c-0.923,2.966-1.869,5.926-2.804,8.889
				c-0.183-0.042-0.366-0.083-0.55-0.123c-0.071-0.2-0.089-0.433-0.209-0.603c-3.629-5.135-4.463-9.827-4.703-14.153
				c-0.486-8.75-0.823-17.512-1.094-26.274c-0.201-6.483-0.162-12.976-0.302-19.463c-0.09-4.18-0.298-8.357-0.486-12.534
				c-0.098-2.168-0.07-4.369-0.446-6.494c-0.443-2.51-1.637-4.602-4.524-5.074c-1.18-0.193-0.542-0.096-1.283-0.038
				c-2.057,0.161-2.46-0.09-4.298,0.893c-3.255,1.74-6.714,2.5-10.432,1.463c-0.717-0.199-1.594,0.178-2.833,0.349
				c0.694,0.931,0.98,1.623,1.495,1.958c4.127,2.672,8.524,1.074,12.9,0.558c0.073,0.426,0.159,0.697,0.161,0.968
				c0.073,5.917,0.339,11.84,0.158,17.75c-0.4,13.055-1.046,26.102-1.553,39.152c-0.256,6.629-0.214,13.245,2.133,19.585
				c0.452,1.219,1.087,2.42,1.862,3.462c2.567,3.447,6.317,4.527,10.365,4.994c4.292,0.497,8.116-2.121,8.975-6.034
				c1.25-5.709,2.668-11.381,3.943-17.085c0.924-4.134,1.735-8.294,2.597-12.443c0.155-0.748,0.308-1.498,0.462-2.246
				c0.629,1.275,0.96,2.533,1.3,3.791c1.107,4.081,2.448,7.935,6.175,10.589c4.356,3.104,10.682,3.382,12.509-3.15
				c0.463-1.655,1.155-3.259,1.473-4.938c1.168-6.2,2.388-12.397,3.257-18.64c0.458-3.296,0.232-6.689,0.326-10.511
				c2.834,4.871,7.4,5.346,11.862,5.807C85.181,119.189,85.69,118.674,85.154,116.415z"/>
			<path fill-rule="evenodd" clip-rule="evenodd" d="M99.351,128.412c-0.571,3.272-1.878,8.158-2.611,11.403
				c-0.719,3.188-1.342,6.4-2.137,9.57c-0.197,0.791-0.894,1.457-1.361,2.181c-0.149-0.083-0.298-0.166-0.449-0.247
				c-0.027-0.192-0.064-0.383-0.081-0.576c-0.283-3.291-0.597-6.579-0.837-9.872c-0.247-3.379-0.509-6.761-0.604-10.146
				c-0.104-3.657-0.003-7.321-0.037-10.98c-0.007-0.706-0.083-1.482-0.388-2.097c-0.364-0.736-0.616-1.793-1.951-1.45
				c-0.521,0.134-1.203-0.017-1.712-0.252c-1.113-0.515-2.082-0.41-3.058,0.166c-0.562,0.587-0.117,1.708-0.165,3.645
				c0.064,0.006-0.064-0.007,0,0c-0.071,2.872-0.26,5.625-0.181,8.371c0.133,4.587,0.496,9.167,0.653,13.752
				c0.13,3.798,0.165,7.578,1.672,11.181c0.83,1.979,2.438,2.982,4.288,3.464c1.734,0.451,3.502-0.217,4.409-1.759
				c1.1-1.868,1.908-3.937,2.614-5.997c0.787-2.294,1.306-4.679,1.967-7.018c0.068-0.239,0.16-0.472,0.254-0.704
				c0.05-0.903,1.107-5.235,1.167-6.138L99.351,128.412z"/>
			<path fill-rule="evenodd" clip-rule="evenodd" d="M87.854,114.982c-1.828-0.106-3.086-1.668-2.977-3.698
				c0.051-0.937,1.633-1.966,2.955-1.923c1.75,0.058,3.064,1.14,2.838,2.535C90.375,113.73,89.48,115.413,87.854,114.982z"/>
		</g>
	</g>
</g>
</svg>
